<svg xmlns="http://www.w3.org/2000/svg" xmlns:xlink="http://www.w3.org/1999/xlink" version="1.1" class="marks" width="502" height="452" viewBox="0 0 502 452"><rect width="502" height="452" fill="white"/><g fill="none" stroke-miterlimit="10" transform="translate(207,5)"><g class="mark-group role-frame root" role="graphics-object" aria-roledescription="group mark container"><g transform="translate(0,0)"><path class="background" aria-hidden="true" d="M0.5,0.5h240v240h-240Z" stroke="#ddd"/><g><g class="mark-rect role-mark marks" role="graphics-symbol" aria-roledescription="rect mark container"><path d="M220,220h20v20h-20Z" fill="rgb(253, 231, 37)"/><path d="M40,220h20v20h-20Z" fill="rgb(63, 72, 136)"/><path d="M0,220h20v20h-20Z" fill="rgb(43, 117, 142)"/><path d="M160,220h20v20h-20Z" fill="rgb(53, 96, 141)"/><path d="M60,220h20v20h-20Z" fill="rgb(70, 11, 94)"/><path d="M140,220h20v20h-20Z" fill="rgb(58, 85, 140)"/><path d="M200,220h20v20h-20Z" fill="rgb(71, 18, 101)"/><path d="M20,220h20v20h-20Z" fill="rgb(72, 34, 114)"/><path d="M80,220h20v20h-20Z" fill="rgb(69, 5, 88)"/><path d="M120,220h20v20h-20Z" fill="rgb(66, 65, 134)"/><path d="M180,220h20v20h-20Z" fill="rgb(72, 21, 103)"/><path d="M100,220h20v20h-20Z" fill="rgb(59, 82, 139)"/><path d="M220,40h20v20h-20Z" fill="rgb(63, 72, 136)"/><path d="M40,40h20v20h-20Z" fill="rgb(253, 231, 37)"/><path d="M0,40h20v20h-20Z" fill="rgb(69, 56, 130)"/><path d="M160,40h20v20h-20Z" fill="rgb(45, 113, 142)"/><path d="M60,40h20v20h-20Z" fill="rgb(45, 112, 142)"/><path d="M140,40h20v20h-20Z" fill="rgb(44, 115, 142)"/><path d="M200,40h20v20h-20Z" fill="rgb(49, 104, 142)"/><path d="M20,40h20v20h-20Z" fill="rgb(154, 217, 61)"/><path d="M80,40h20v20h-20Z" fill="rgb(66, 65, 134)"/><path d="M120,40h20v20h-20Z" fill="rgb(80, 196, 106)"/><path d="M180,40h20v20h-20Z" fill="rgb(38, 131, 142)"/><path d="M100,40h20v20h-20Z" fill="rgb(41, 124, 142)"/><path d="M220,0h20v20h-20Z" fill="rgb(43, 117, 142)"/><path d="M40,0h20v20h-20Z" fill="rgb(69, 56, 130)"/><path d="M0,0h20v20h-20Z" fill="rgb(253, 231, 37)"/><path d="M160,0h20v20h-20Z" fill="rgb(62, 74, 137)"/><path d="M60,0h20v20h-20Z" fill="rgb(65, 68, 135)"/><path d="M140,0h20v20h-20Z" fill="rgb(62, 74, 137)"/><path d="M200,0h20v20h-20Z" fill="rgb(69, 7, 90)"/><path d="M20,0h20v20h-20Z" fill="rgb(39, 129, 142)"/><path d="M80,0h20v20h-20Z" fill="rgb(72, 31, 112)"/><path d="M120,0h20v20h-20Z" fill="rgb(57, 85, 140)"/><path d="M180,0h20v20h-20Z" fill="rgb(71, 44, 122)"/><path d="M100,0h20v20h-20Z" fill="rgb(71, 43, 122)"/><path d="M220,160h20v20h-20Z" fill="rgb(53, 96, 141)"/><path d="M40,160h20v20h-20Z" fill="rgb(45, 113, 142)"/><path d="M0,160h20v20h-20Z" fill="rgb(62, 74, 137)"/><path d="M160,160h20v20h-20Z" fill="rgb(253, 231, 37)"/><path d="M60,160h20v20h-20Z" fill="rgb(71, 43, 122)"/><path d="M140,160h20v20h-20Z" fill="rgb(234, 229, 27)"/><path d="M200,160h20v20h-20Z" fill="rgb(68, 1, 84)"/><path d="M20,160h20v20h-20Z" fill="rgb(65, 69, 135)"/><path d="M80,160h20v20h-20Z" fill="rgb(71, 19, 102)"/><path d="M120,160h20v20h-20Z" fill="rgb(40, 126, 142)"/><path d="M180,160h20v20h-20Z" fill="rgb(72, 29, 111)"/><path d="M100,160h20v20h-20Z" fill="rgb(54, 94, 141)"/><path d="M220,60h20v20h-20Z" fill="rgb(70, 11, 94)"/><path d="M40,60h20v20h-20Z" fill="rgb(45, 112, 142)"/><path d="M0,60h20v20h-20Z" fill="rgb(65, 68, 135)"/><path d="M160,60h20v20h-20Z" fill="rgb(71, 43, 122)"/><path d="M60,60h20v20h-20Z" fill="rgb(253, 231, 37)"/><path d="M140,60h20v20h-20Z" fill="rgb(71, 47, 125)"/><path d="M200,60h20v20h-20Z" fill="rgb(61, 77, 138)"/><path d="M20,60h20v20h-20Z" fill="rgb(39, 128, 142)"/><path d="M80,60h20v20h-20Z" fill="rgb(31, 151, 139)"/><path d="M120,60h20v20h-20Z" fill="rgb(48, 105, 142)"/><path d="M180,60h20v20h-20Z" fill="rgb(52, 98, 141)"/><path d="M100,60h20v20h-20Z" fill="rgb(56, 90, 140)"/><path d="M220,140h20v20h-20Z" fill="rgb(58, 85, 140)"/><path d="M40,140h20v20h-20Z" fill="rgb(44, 115, 142)"/><path d="M0,140h20v20h-20Z" fill="rgb(62, 74, 137)"/><path d="M160,140h20v20h-20Z" fill="rgb(234, 229, 27)"/><path d="M60,140h20v20h-20Z" fill="rgb(71, 47, 125)"/><path d="M140,140h20v20h-20Z" fill="rgb(253, 231, 37)"/><path d="M200,140h20v20h-20Z" fill="rgb(68, 2, 85)"/><path d="M20,140h20v20h-20Z" fill="rgb(61, 78, 138)"/><path d="M80,140h20v20h-20Z" fill="rgb(72, 21, 103)"/><path d="M120,140h20v20h-20Z" fill="rgb(44, 114, 142)"/><path d="M180,140h20v20h-20Z" fill="rgb(72, 36, 116)"/><path d="M100,140h20v20h-20Z" fill="rgb(53, 96, 141)"/><path d="M220,200h20v20h-20Z" fill="rgb(71, 18, 101)"/><path d="M40,200h20v20h-20Z" fill="rgb(49, 104, 142)"/><path d="M0,200h20v20h-20Z" fill="rgb(69, 7, 90)"/><path d="M160,200h20v20h-20Z" fill="rgb(68, 1, 84)"/><path d="M60,200h20v20h-20Z" fill="rgb(61, 77, 138)"/><path d="M140,200h20v20h-20Z" fill="rgb(68, 2, 85)"/><path d="M200,200h20v20h-20Z" fill="rgb(253, 231, 37)"/><path d="M20,200h20v20h-20Z" fill="rgb(34, 139, 142)"/><path d="M80,200h20v20h-20Z" fill="rgb(71, 47, 125)"/><path d="M120,200h20v20h-20Z" fill="rgb(55, 90, 140)"/><path d="M180,200h20v20h-20Z" fill="rgb(43, 177, 127)"/><path d="M100,200h20v20h-20Z" fill="rgb(72, 34, 114)"/><path d="M220,20h20v20h-20Z" fill="rgb(72, 34, 114)"/><path d="M40,20h20v20h-20Z" fill="rgb(154, 217, 61)"/><path d="M0,20h20v20h-20Z" fill="rgb(39, 129, 142)"/><path d="M160,20h20v20h-20Z" fill="rgb(65, 69, 135)"/><path d="M60,20h20v20h-20Z" fill="rgb(39, 128, 142)"/><path d="M140,20h20v20h-20Z" fill="rgb(61, 78, 138)"/><path d="M200,20h20v20h-20Z" fill="rgb(34, 139, 142)"/><path d="M20,20h20v20h-20Z" fill="rgb(253, 231, 37)"/><path d="M80,20h20v20h-20Z" fill="rgb(63, 73, 136)"/><path d="M120,20h20v20h-20Z" fill="rgb(43, 177, 127)"/><path d="M180,20h20v20h-20Z" fill="rgb(36, 170, 131)"/><path d="M100,20h20v20h-20Z" fill="rgb(48, 105, 142)"/><path d="M220,80h20v20h-20Z" fill="rgb(69, 5, 88)"/><path d="M40,80h20v20h-20Z" fill="rgb(66, 65, 134)"/><path d="M0,80h20v20h-20Z" fill="rgb(72, 31, 112)"/><path d="M160,80h20v20h-20Z" fill="rgb(71, 19, 102)"/><path d="M60,80h20v20h-20Z" fill="rgb(31, 151, 139)"/><path d="M140,80h20v20h-20Z" fill="rgb(72, 21, 103)"/><path d="M200,80h20v20h-20Z" fill="rgb(71, 47, 125)"/><path d="M20,80h20v20h-20Z" fill="rgb(63, 73, 136)"/><path d="M80,80h20v20h-20Z" fill="rgb(253, 231, 37)"/><path d="M120,80h20v20h-20Z" fill="rgb(66, 63, 133)"/><path d="M180,80h20v20h-20Z" fill="rgb(68, 58, 131)"/><path d="M100,80h20v20h-20Z" fill="rgb(71, 45, 123)"/><path d="M220,120h20v20h-20Z" fill="rgb(66, 65, 134)"/><path d="M40,120h20v20h-20Z" fill="rgb(80, 196, 106)"/><path d="M0,120h20v20h-20Z" fill="rgb(57, 85, 140)"/><path d="M160,120h20v20h-20Z" fill="rgb(40, 126, 142)"/><path d="M60,120h20v20h-20Z" fill="rgb(48, 105, 142)"/><path d="M140,120h20v20h-20Z" fill="rgb(44, 114, 142)"/><path d="M200,120h20v20h-20Z" fill="rgb(55, 90, 140)"/><path d="M20,120h20v20h-20Z" fill="rgb(43, 177, 127)"/><path d="M80,120h20v20h-20Z" fill="rgb(66, 63, 133)"/><path d="M120,120h20v20h-20Z" fill="rgb(253, 231, 37)"/><path d="M180,120h20v20h-20Z" fill="rgb(40, 125, 142)"/><path d="M100,120h20v20h-20Z" fill="rgb(46, 110, 142)"/><path d="M220,180h20v20h-20Z" fill="rgb(72, 21, 103)"/><path d="M40,180h20v20h-20Z" fill="rgb(38, 131, 142)"/><path d="M0,180h20v20h-20Z" fill="rgb(71, 44, 122)"/><path d="M160,180h20v20h-20Z" fill="rgb(72, 29, 111)"/><path d="M60,180h20v20h-20Z" fill="rgb(52, 98, 141)"/><path d="M140,180h20v20h-20Z" fill="rgb(72, 36, 116)"/><path d="M200,180h20v20h-20Z" fill="rgb(43, 177, 127)"/><path d="M20,180h20v20h-20Z" fill="rgb(36, 170, 131)"/><path d="M80,180h20v20h-20Z" fill="rgb(68, 58, 131)"/><path d="M120,180h20v20h-20Z" fill="rgb(40, 125, 142)"/><path d="M180,180h20v20h-20Z" fill="rgb(253, 231, 37)"/><path d="M100,180h20v20h-20Z" fill="rgb(69, 56, 130)"/><path d="M220,100h20v20h-20Z" fill="rgb(59, 82, 139)"/><path d="M40,100h20v20h-20Z" fill="rgb(41, 124, 142)"/><path d="M0,100h20v20h-20Z" fill="rgb(71, 43, 122)"/><path d="M160,100h20v20h-20Z" fill="rgb(54, 94, 141)"/><path d="M60,100h20v20h-20Z" fill="rgb(56, 90, 140)"/><path d="M140,100h20v20h-20Z" fill="rgb(53, 96, 141)"/><path d="M200,100h20v20h-20Z" fill="rgb(72, 34, 114)"/><path d="M20,100h20v20h-20Z" fill="rgb(48, 105, 142)"/><path d="M80,100h20v20h-20Z" fill="rgb(71, 45, 123)"/><path d="M120,100h20v20h-20Z" fill="rgb(46, 110, 142)"/><path d="M180,100h20v20h-20Z" fill="rgb(69, 56, 130)"/><path d="M100,100h20v20h-20Z" fill="rgb(253, 231, 37)"/></g><g class="mark-group role-legend" role="graphics-symbol" aria-roledescription="legend" aria-label="Gradient legend titled 'Corr' for fill color with values from 0.0 to 1.0"><g transform="translate(258,0)"><path class="background" aria-hidden="true" d="M0,0h32v216h-32Z" pointer-events="none"/><g><g class="mark-group role-legend-entry"><g transform="translate(0,16)"><path class="background" aria-hidden="true" d="M0,0h0v0h0Z" pointer-events="none"/><g><g class="mark-rect role-legend-gradient" pointer-events="none"><path d="M0,0h16v200h-16Z" fill="url(#gradient_1)" stroke="#ddd" stroke-width="0" opacity="1"/></g><g class="mark-text role-legend-label" pointer-events="none"><text text-anchor="start" transform="translate(18,163.63527322182765)" font-family="sans-serif" font-size="10px" fill="#000" opacity="1">0.2</text><text text-anchor="start" transform="translate(18,123.47645491637073)" font-family="sans-serif" font-size="10px" fill="#000" opacity="1">0.4</text><text text-anchor="start" transform="translate(18,83.31763661091382)" font-family="sans-serif" font-size="10px" fill="#000" opacity="1">0.6</text><text text-anchor="start" transform="translate(18,43.15881830545691)" font-family="sans-serif" font-size="10px" fill="#000" opacity="1">0.8</text><text text-anchor="start" transform="translate(18,8)" font-family="sans-serif" font-size="10px" fill="#000" opacity="1">1.0</text></g></g><path class="foreground" aria-hidden="true" d="" pointer-events="none" display="none"/></g></g><g class="mark-text role-legend-title" pointer-events="none"><text text-anchor="start" transform="translate(0,9)" font-family="sans-serif" font-size="11px" font-weight="bold" fill="#000" opacity="1">Corr</text></g></g><path class="foreground" aria-hidden="true" d="" pointer-events="none" display="none"/></g></g><g class="mark-group role-axis" role="graphics-symbol" aria-roledescription="axis" aria-label="X-axis titled 'var1' for a discrete scale with 12 values: education_percent_of_adults_completing_some_college_or_associate's_degree_2015-19, education_percent_of_adults_with_a_bachelor's_degree_or_higher_2015-19, education_percent_of_adults_with_a_high_school_diploma_only_2015-19, mean_income, median_income, ending with zipcode"><g transform="translate(0.5,240.5)"><path class="background" aria-hidden="true" d="M0,0h0v0h0Z" pointer-events="none"/><g><g class="mark-rule role-axis-tick" pointer-events="none"><line transform="translate(10,0)" x2="0" y2="5" stroke="#888" stroke-width="1" opacity="1"/><line transform="translate(30,0)" x2="0" y2="5" stroke="#888" stroke-width="1" opacity="1"/><line transform="translate(50,0)" x2="0" y2="5" stroke="#888" stroke-width="1" opacity="1"/><line transform="translate(70,0)" x2="0" y2="5" stroke="#888" stroke-width="1" opacity="1"/><line transform="translate(90,0)" x2="0" y2="5" stroke="#888" stroke-width="1" opacity="1"/><line transform="translate(110,0)" x2="0" y2="5" stroke="#888" stroke-width="1" opacity="1"/><line transform="translate(130,0)" x2="0" y2="5" stroke="#888" stroke-width="1" opacity="1"/><line transform="translate(150,0)" x2="0" y2="5" stroke="#888" stroke-width="1" opacity="1"/><line transform="translate(170,0)" x2="0" y2="5" stroke="#888" stroke-width="1" opacity="1"/><line transform="translate(190,0)" x2="0" y2="5" stroke="#888" stroke-width="1" opacity="1"/><line transform="translate(210,0)" x2="0" y2="5" stroke="#888" stroke-width="1" opacity="1"/><line transform="translate(230,0)" x2="0" y2="5" stroke="#888" stroke-width="1" opacity="1"/></g><g class="mark-text role-axis-label" pointer-events="none"><text text-anchor="end" transform="translate(9.5,7) rotate(270) translate(0,3)" font-family="sans-serif" font-size="10px" fill="#000" opacity="1">education_percent_of_adults_complet…</text><text text-anchor="end" transform="translate(29.5,7) rotate(270) translate(0,3)" font-family="sans-serif" font-size="10px" fill="#000" opacity="1">education_percent_of_adults_with_a_…</text><text text-anchor="end" transform="translate(49.5,7) rotate(270) translate(0,3)" font-family="sans-serif" font-size="10px" fill="#000" opacity="1">education_percent_of_adults_with_a_…</text><text text-anchor="end" transform="translate(69.5,7) rotate(270) translate(0,3)" font-family="sans-serif" font-size="10px" fill="#000" opacity="1">mean_income</text><text text-anchor="end" transform="translate(89.5,7) rotate(270) translate(0,3)" font-family="sans-serif" font-size="10px" fill="#000" opacity="1">median_income</text><text text-anchor="end" transform="translate(109.5,7) rotate(270) translate(0,3)" font-family="sans-serif" font-size="10px" fill="#000" opacity="1">numStarbucks</text><text text-anchor="end" transform="translate(129.5,7) rotate(270) translate(0,3)" font-family="sans-serif" font-size="10px" fill="#000" opacity="1">population_death_rate_2016</text><text text-anchor="end" transform="translate(149.5,7) rotate(270) translate(0,3)" font-family="sans-serif" font-size="10px" fill="#000" opacity="1">population_estimate_2016</text><text text-anchor="end" transform="translate(169.5,7) rotate(270) translate(0,3)" font-family="sans-serif" font-size="10px" fill="#000" opacity="1">population_natural_increase_2016</text><text text-anchor="end" transform="translate(189.5,7) rotate(270) translate(0,3)" font-family="sans-serif" font-size="10px" fill="#000" opacity="1">unemployment_civilian_labor_force_2…</text><text text-anchor="end" transform="translate(209.5,7) rotate(270) translate(0,3)" font-family="sans-serif" font-size="10px" fill="#000" opacity="1">unemployment_unemployment_rate_…</text><text text-anchor="end" transform="translate(229.5,7) rotate(270) translate(0,3)" font-family="sans-serif" font-size="10px" fill="#000" opacity="1">zipcode</text></g><g class="mark-rule role-axis-domain" pointer-events="none"><line transform="translate(0,0)" x2="240" y2="0" stroke="#888" stroke-width="1" opacity="1"/></g><g class="mark-text role-axis-title" pointer-events="none"><text text-anchor="middle" transform="translate(120,199.0087890625)" font-family="sans-serif" font-size="11px" font-weight="bold" fill="#000" opacity="1">var1</text></g></g><path class="foreground" aria-hidden="true" d="" pointer-events="none" display="none"/></g></g><g class="mark-group role-axis" role="graphics-symbol" aria-roledescription="axis" aria-label="Y-axis titled 'var2' for a discrete scale with 12 values: education_percent_of_adults_completing_some_college_or_associate's_degree_2015-19, education_percent_of_adults_with_a_bachelor's_degree_or_higher_2015-19, education_percent_of_adults_with_a_high_school_diploma_only_2015-19, mean_income, median_income, ending with zipcode"><g transform="translate(0.5,0.5)"><path class="background" aria-hidden="true" d="M0,0h0v0h0Z" pointer-events="none"/><g><g class="mark-rule role-axis-tick" pointer-events="none"><line transform="translate(0,10)" x2="-5" y2="0" stroke="#888" stroke-width="1" opacity="1"/><line transform="translate(0,30)" x2="-5" y2="0" stroke="#888" stroke-width="1" opacity="1"/><line transform="translate(0,50)" x2="-5" y2="0" stroke="#888" stroke-width="1" opacity="1"/><line transform="translate(0,70)" x2="-5" y2="0" stroke="#888" stroke-width="1" opacity="1"/><line transform="translate(0,90)" x2="-5" y2="0" stroke="#888" stroke-width="1" opacity="1"/><line transform="translate(0,110)" x2="-5" y2="0" stroke="#888" stroke-width="1" opacity="1"/><line transform="translate(0,130)" x2="-5" y2="0" stroke="#888" stroke-width="1" opacity="1"/><line transform="translate(0,150)" x2="-5" y2="0" stroke="#888" stroke-width="1" opacity="1"/><line transform="translate(0,170)" x2="-5" y2="0" stroke="#888" stroke-width="1" opacity="1"/><line transform="translate(0,190)" x2="-5" y2="0" stroke="#888" stroke-width="1" opacity="1"/><line transform="translate(0,210)" x2="-5" y2="0" stroke="#888" stroke-width="1" opacity="1"/><line transform="translate(0,230)" x2="-5" y2="0" stroke="#888" stroke-width="1" opacity="1"/></g><g class="mark-text role-axis-label" pointer-events="none"><text text-anchor="end" transform="translate(-7,12.5)" font-family="sans-serif" font-size="10px" fill="#000" opacity="1">education_percent_of_adults_complet…</text><text text-anchor="end" transform="translate(-7,32.5)" font-family="sans-serif" font-size="10px" fill="#000" opacity="1">education_percent_of_adults_with_a_…</text><text text-anchor="end" transform="translate(-7,52.5)" font-family="sans-serif" font-size="10px" fill="#000" opacity="1">education_percent_of_adults_with_a_…</text><text text-anchor="end" transform="translate(-7,72.5)" font-family="sans-serif" font-size="10px" fill="#000" opacity="1">mean_income</text><text text-anchor="end" transform="translate(-7,92.5)" font-family="sans-serif" font-size="10px" fill="#000" opacity="1">median_income</text><text text-anchor="end" transform="translate(-7,112.5)" font-family="sans-serif" font-size="10px" fill="#000" opacity="1">numStarbucks</text><text text-anchor="end" transform="translate(-7,132.5)" font-family="sans-serif" font-size="10px" fill="#000" opacity="1">population_death_rate_2016</text><text text-anchor="end" transform="translate(-7,152.5)" font-family="sans-serif" font-size="10px" fill="#000" opacity="1">population_estimate_2016</text><text text-anchor="end" transform="translate(-7,172.5)" font-family="sans-serif" font-size="10px" fill="#000" opacity="1">population_natural_increase_2016</text><text text-anchor="end" transform="translate(-7,192.5)" font-family="sans-serif" font-size="10px" fill="#000" opacity="1">unemployment_civilian_labor_force_2…</text><text text-anchor="end" transform="translate(-7,212.5)" font-family="sans-serif" font-size="10px" fill="#000" opacity="1">unemployment_unemployment_rate_…</text><text text-anchor="end" transform="translate(-7,232.5)" font-family="sans-serif" font-size="10px" fill="#000" opacity="1">zipcode</text></g><g class="mark-rule role-axis-domain" pointer-events="none"><line transform="translate(0,0)" x2="0" y2="240" stroke="#888" stroke-width="1" opacity="1"/></g><g class="mark-text role-axis-title" pointer-events="none"><text text-anchor="middle" transform="translate(-190.0087890625,120) rotate(-90) translate(0,-2)" font-family="sans-serif" font-size="11px" font-weight="bold" fill="#000" opacity="1">var2</text></g></g><path class="foreground" aria-hidden="true" d="" pointer-events="none" display="none"/></g></g></g><path class="foreground" aria-hidden="true" d="" display="none"/></g></g></g><defs><linearGradient id="gradient_1" x1="0" x2="0" y1="1" y2="0"><stop offset="0" stop-color="rgb(68, 1, 84)"/><stop offset="0.04622806524539835" stop-color="rgb(71, 19, 101)"/><stop offset="0.09642658812721949" stop-color="rgb(72, 36, 116)"/><stop offset="0.14662511100904063" stop-color="rgb(70, 51, 127)"/><stop offset="0.1968236338908618" stop-color="rgb(65, 67, 135)"/><stop offset="0.2470221567726829" stop-color="rgb(59, 81, 139)"/><stop offset="0.29722067965450405" stop-color="rgb(53, 95, 141)"/><stop offset="0.34741920253632513" stop-color="rgb(47, 107, 142)"/><stop offset="0.39761772541814633" stop-color="rgb(42, 119, 142)"/><stop offset="0.44781624829996747" stop-color="rgb(37, 132, 142)"/><stop offset="0.4980147711817886" stop-color="rgb(33, 144, 141)"/><stop offset="0.5482132940636097" stop-color="rgb(31, 156, 138)"/><stop offset="0.5984118169454309" stop-color="rgb(34, 168, 132)"/><stop offset="0.648610339827252" stop-color="rgb(47, 179, 124)"/><stop offset="0.6988088627090732" stop-color="rgb(66, 191, 113)"/><stop offset="0.7490073855908943" stop-color="rgb(92, 200, 99)"/><stop offset="0.7992059084727154" stop-color="rgb(122, 209, 81)"/><stop offset="0.8494044313545366" stop-color="rgb(154, 217, 61)"/><stop offset="0.8996029542363577" stop-color="rgb(188, 223, 39)"/><stop offset="0.9498014771181789" stop-color="rgb(221, 227, 27)"/><stop offset="1" stop-color="rgb(253, 231, 37)"/></linearGradient></defs></svg>